# Procedural Torus
v 2.4249 0.0000 -1.4000
v 2.4800 0.2301 -1.1662
v 2.4058 0.4204 -0.9036
v 2.2151 0.5380 -0.6577
v 1.9409 0.5626 -0.4710
v 1.6306 0.4899 -0.3757
v 1.3378 0.3325 -0.3884
v 1.1132 0.1176 -0.5069
v 0.9956 -0.1176 -0.7106
v 1.0053 -0.3325 -0.9643
v 1.1407 -0.4899 -1.2243
v 1.3783 -0.5626 -1.4454
v 1.6771 -0.5380 -1.5895
v 1.9854 -0.4204 -1.6317
v 2.2499 -0.2301 -1.5647
v 2.5777 -0.4116 -1.0129
v 2.6291 -0.1714 -0.7886
v 2.5442 0.0477 -0.5531
v 2.3378 0.2076 -0.3470
v 2.0455 0.2808 -0.2060
v 1.7179 0.2547 -0.1545
v 1.4116 0.1336 -0.2014
v 1.1796 -0.0614 -0.3386
v 1.0620 -0.2966 -0.5423
v 1.0791 -0.5314 -0.7773
v 1.2280 -0.7251 -1.0031
v 1.4829 -0.8443 -1.1805
v 1.7998 -0.8684 -1.2789
v 2.1238 -0.7931 -1.2812
v 2.3990 -0.6316 -1.1872
v 2.6179 -0.8053 -0.5816
v 2.6683 -0.5553 -0.3679
v 2.5806 -0.3088 -0.1625
v 2.3700 -0.1083 -0.0008
v 2.0730 0.0114 0.0892
v 1.7409 0.0297 0.0919
v 1.4310 -0.0566 0.0070
v 1.1971 -0.2325 -0.1510
v 1.0795 -0.4678 -0.3547
v 1.0985 -0.7216 -0.5689
v 1.2510 -0.9501 -0.7566
v 1.5104 -1.1137 -0.8852
v 1.8320 -1.1843 -0.9327
v 2.1602 -1.1496 -0.8906
v 2.4382 -1.0155 -0.7664
v 2.5436 -1.1638 -0.1248
v 2.5959 -0.9049 0.0776
v 2.5134 -0.6334 0.2511
v 2.3105 -0.3960 0.3658
v 2.0222 -0.2339 0.4018
v 1.6985 -0.1751 0.3530
v 1.3952 -0.2298 0.2277
v 1.1648 -0.3884 0.0476
v 1.0472 -0.6236 -0.1561
v 1.0627 -0.8948 -0.3482
v 1.2086 -1.1549 -0.4956
v 1.4596 -1.3591 -0.5726
v 1.7725 -1.4720 -0.5661
v 2.0930 -1.4741 -0.4771
v 2.3658 -1.3651 -0.3210
v 2.3582 -1.4714 0.3374
v 2.4150 -1.2049 0.5284
v 2.3455 -0.9119 0.6696
v 2.1617 -0.6429 0.7367
v 1.8953 -0.4444 0.7182
v 1.5925 -0.3509 0.6171
v 1.3056 -0.3784 0.4510
v 1.0842 -0.5222 0.2486
v 0.9666 -0.7574 0.0449
v 0.9731 -1.0434 -0.1249
v 1.1026 -1.3307 -0.2314
v 1.3327 -1.5696 -0.2563
v 1.6237 -1.7189 -0.1951
v 1.9251 -1.7526 -0.0585
v 2.1849 -1.6651 0.1299
v 2.0698 -1.7146 0.7849
v 2.1337 -1.4422 0.9648
v 2.0843 -1.1322 1.0748
v 1.9301 -0.8381 1.0959
v 1.6979 -0.6110 1.0244
v 1.4277 -0.4899 0.8728
v 1.1662 -0.4959 0.6672
v 0.9588 -0.6279 0.4432
v 0.8412 -0.8632 0.2394
v 0.8337 -1.1609 0.0913
v 0.9378 -1.4697 0.0243
v 1.1353 -1.7361 0.0500
v 1.3921 -1.9141 0.1640
v 1.6639 -1.9729 0.3467
v 1.9036 -1.9024 0.5663
v 1.6908 -1.8830 1.1981
v 1.7641 -1.6064 1.3678
v 1.7412 -1.2846 1.4489
v 1.6260 -0.9732 1.4275
v 1.4385 -0.7262 1.3072
v 1.2111 -0.5861 1.1089
v 0.9832 -0.5772 0.8668
v 0.7940 -0.7011 0.6228
v 0.6764 -0.9364 0.4191
v 0.6507 -1.2422 0.2909
v 0.7212 -1.5659 0.2604
v 0.8759 -1.8513 0.3328
v 1.0880 -2.0492 0.4956
v 1.3208 -2.1254 0.7208
v 1.5340 -2.0666 0.9692
v 1.2380 -1.9691 1.5589
v 1.3225 -1.6903 1.7197
v 1.3312 -1.3625 1.7756
v 1.2626 -1.0423 1.7171
v 1.1286 -0.7851 1.5542
v 0.9524 -0.6353 1.3151
v 0.7644 -0.6188 1.0411
v 0.5971 -0.7386 0.7797
v 0.4795 -0.9738 0.5760
v 0.4319 -1.2838 0.4652
v 0.4625 -1.6151 0.4665
v 0.5660 -1.9102 0.5797
v 0.7246 -2.1183 0.7852
v 0.9108 -2.2033 1.0475
v 1.0924 -2.1505 1.3211
v 0.7311 -1.9691 1.8516
v 0.8280 -1.6903 2.0051
v 0.8721 -1.3625 2.0406
v 0.8557 -1.0423 1.9520
v 0.7816 -0.7851 1.7545
v 0.6627 -0.6353 1.4823
v 0.5195 -0.6188 1.1825
v 0.3767 -0.7386 0.9070
v 0.2591 -0.9738 0.7032
v 0.1870 -1.2838 0.6066
v 0.1728 -1.6151 0.6338
v 0.2191 -1.9102 0.7801
v 0.3177 -2.1183 1.0201
v 0.4518 -2.2033 1.3125
v 0.5980 -2.1505 1.6066
v 0.1922 -1.8830 2.0633
v 0.3025 -1.6064 2.2116
v 0.3842 -1.2846 2.2324
v 0.4232 -0.9732 2.1219
v 0.4128 -0.7262 1.8994
v 0.3548 -0.5861 1.6033
v 0.2591 -0.5772 1.2848
v 0.1424 -0.7011 0.9990
v 0.0248 -0.9364 0.7953
v -0.0734 -1.2422 0.7089
v -0.1351 -1.5659 0.7548
v -0.1498 -1.8513 0.9250
v -0.1148 -2.0492 1.1901
v -0.0362 -2.1254 1.5042
v 0.0724 -2.0666 1.8131
v -0.3551 -1.7146 2.1849
v -0.2313 -1.4422 2.3302
v -0.1114 -1.1322 2.3424
v -0.0160 -0.8381 2.2195
v 0.0382 -0.6110 1.9826
v 0.0420 -0.4899 1.6728
v -0.0053 -0.4959 1.3436
v -0.0956 -0.6279 1.0519
v -0.2132 -0.8632 0.8482
v -0.3378 -1.1609 0.7677
v -0.4479 -1.4697 0.8243
v -0.5243 -1.7361 1.0082
v -0.5540 -1.9141 1.2876
v -0.5317 -1.9729 1.6143
v -0.4614 -1.9024 1.9317
v -0.8869 -1.4714 2.2110
v -0.7499 -1.2049 2.3557
v -0.5928 -0.9119 2.3661
v -0.4428 -0.6429 2.2404
v -0.3257 -0.4444 2.0005
v -0.2618 -0.3509 1.6877
v -0.2622 -0.3784 1.3562
v -0.3268 -0.5222 1.0632
v -0.4444 -0.7574 0.8595
v -0.5947 -1.0434 0.7803
v -0.7517 -1.3307 0.8392
v -0.8883 -1.5696 1.0260
v -0.9808 -1.7189 1.3086
v -1.0132 -1.7526 1.6379
v -0.9800 -1.6651 1.9571
v -1.3799 -1.1638 2.1405
v -1.2308 -0.9049 2.2869
v -1.0392 -0.6334 2.3022
v -0.8385 -0.3960 2.1838
v -0.6631 -0.2339 1.9522
v -0.5436 -0.1751 1.6474
v -0.5004 -0.2298 1.3221
v -0.5412 -0.3884 1.0326
v -0.6588 -0.6236 0.8289
v -0.8329 -0.8948 0.7462
v -1.0335 -1.1549 0.7989
v -1.2257 -1.3591 0.9778
v -1.3765 -1.4720 1.2520
v -1.4596 -1.4741 1.5741
v -1.4608 -1.3651 1.8883
v -1.8126 -0.8053 1.9764
v -1.6528 -0.5553 2.1268
v -1.4310 -0.3088 2.1536
v -1.1857 -0.1083 2.0521
v -0.9593 0.0114 1.8399
v -0.7908 0.0297 1.5536
v -0.7095 -0.0566 1.2428
v -0.7293 -0.2325 0.9612
v -0.8469 -0.4678 0.7575
v -1.0420 -0.7216 0.6669
v -1.2807 -0.9501 0.7051
v -1.5219 -1.1137 0.8655
v -1.7237 -1.1843 1.1203
v -1.8514 -1.1496 1.4255
v -1.8829 -1.0155 1.7283
v -2.1661 -0.4116 1.7259
v -1.9975 -0.1714 1.8825
v -1.7511 0.0477 1.9268
v -1.4694 0.2076 1.8511
v -1.2012 0.2808 1.6685
v -0.9928 0.2547 1.4105
v -0.8803 0.1336 1.1218
v -0.8830 -0.0614 0.8523
v -1.0006 -0.2966 0.6486
v -1.2128 -0.5314 0.5459
v -1.4827 -0.7251 0.5620
v -1.7638 -0.8443 0.6940
v -2.0074 -0.8684 0.9192
v -2.1715 -0.7931 1.1987
v -2.2276 -0.6316 1.4840
v -2.4249 -0.0000 1.4000
v -2.2499 0.2301 1.5647
v -1.9854 0.4204 1.6317
v -1.6771 0.5380 1.5895
v -1.3783 0.5626 1.4454
v -1.1407 0.4899 1.2243
v -1.0053 0.3325 0.9643
v -0.9956 0.1176 0.7106
v -1.1132 -0.1176 0.5069
v -1.3378 -0.3325 0.3884
v -1.6306 -0.4899 0.3757
v -1.9409 -0.5626 0.4710
v -2.2151 -0.5380 0.6577
v -2.4058 -0.4204 0.9036
v -2.4800 -0.2301 1.1662
v -2.5777 0.4116 1.0129
v -2.3990 0.6316 1.1872
v -2.1238 0.7931 1.2812
v -1.7998 0.8684 1.2789
v -1.4829 0.8443 1.1805
v -1.2280 0.7251 1.0031
v -1.0791 0.5314 0.7773
v -1.0620 0.2966 0.5423
v -1.1796 0.0614 0.3386
v -1.4116 -0.1336 0.2014
v -1.7179 -0.2547 0.1545
v -2.0455 -0.2808 0.2060
v -2.3378 -0.2076 0.3470
v -2.5442 -0.0477 0.5531
v -2.6291 0.1714 0.7886
v -2.6179 0.8053 0.5816
v -2.4382 1.0155 0.7664
v -2.1602 1.1496 0.8906
v -1.8320 1.1843 0.9327
v -1.5104 1.1137 0.8852
v -1.2510 0.9501 0.7566
v -1.0985 0.7216 0.5689
v -1.0795 0.4678 0.3547
v -1.1971 0.2325 0.1510
v -1.4310 0.0566 -0.0070
v -1.7409 -0.0297 -0.0919
v -2.0730 -0.0114 -0.0892
v -2.3700 0.1083 0.0008
v -2.5806 0.3088 0.1625
v -2.6683 0.5553 0.3679
v -2.5436 1.1638 0.1248
v -2.3658 1.3651 0.3210
v -2.0930 1.4741 0.4771
v -1.7725 1.4720 0.5661
v -1.4596 1.3591 0.5726
v -1.2086 1.1549 0.4956
v -1.0627 0.8948 0.3482
v -1.0472 0.6236 0.1561
v -1.1648 0.3884 -0.0476
v -1.3952 0.2298 -0.2277
v -1.6985 0.1751 -0.3530
v -2.0222 0.2339 -0.4018
v -2.3105 0.3960 -0.3658
v -2.5134 0.6334 -0.2511
v -2.5959 0.9049 -0.0776
v -2.3582 1.4714 -0.3374
v -2.1849 1.6651 -0.1299
v -1.9251 1.7526 0.0585
v -1.6237 1.7189 0.1951
v -1.3327 1.5696 0.2563
v -1.1026 1.3307 0.2314
v -0.9731 1.0434 0.1249
v -0.9666 0.7574 -0.0449
v -1.0842 0.5222 -0.2486
v -1.3056 0.3784 -0.4510
v -1.5925 0.3509 -0.6171
v -1.8953 0.4444 -0.7182
v -2.1617 0.6429 -0.7367
v -2.3455 0.9119 -0.6696
v -2.4150 1.2049 -0.5284
v -2.0698 1.7146 -0.7849
v -1.9036 1.9024 -0.5663
v -1.6639 1.9729 -0.3467
v -1.3921 1.9141 -0.1640
v -1.1353 1.7361 -0.0500
v -0.9378 1.4697 -0.0243
v -0.8337 1.1609 -0.0913
v -0.8412 0.8632 -0.2394
v -0.9588 0.6279 -0.4432
v -1.1662 0.4959 -0.6672
v -1.4277 0.4899 -0.8728
v -1.6979 0.6110 -1.0244
v -1.9301 0.8381 -1.0959
v -2.0843 1.1322 -1.0748
v -2.1337 1.4422 -0.9648
v -1.6908 1.8830 -1.1981
v -1.5340 2.0666 -0.9692
v -1.3208 2.1254 -0.7208
v -1.0880 2.0492 -0.4956
v -0.8759 1.8513 -0.3328
v -0.7212 1.5659 -0.2604
v -0.6507 1.2422 -0.2909
v -0.6764 0.9364 -0.4191
v -0.7940 0.7011 -0.6228
v -0.9832 0.5772 -0.8668
v -1.2111 0.5861 -1.1089
v -1.4385 0.7262 -1.3072
v -1.6260 0.9732 -1.4275
v -1.7412 1.2846 -1.4489
v -1.7641 1.6064 -1.3678
v -1.2380 1.9691 -1.5589
v -1.0924 2.1505 -1.3211
v -0.9108 2.2033 -1.0475
v -0.7246 2.1183 -0.7852
v -0.5660 1.9102 -0.5797
v -0.4625 1.6151 -0.4665
v -0.4319 1.2838 -0.4652
v -0.4795 0.9738 -0.5760
v -0.5971 0.7386 -0.7797
v -0.7644 0.6188 -1.0411
v -0.9524 0.6353 -1.3151
v -1.1286 0.7851 -1.5542
v -1.2626 1.0423 -1.7171
v -1.3312 1.3625 -1.7756
v -1.3225 1.6903 -1.7197
v -0.7311 1.9691 -1.8516
v -0.5980 2.1505 -1.6066
v -0.4518 2.2033 -1.3125
v -0.3177 2.1183 -1.0201
v -0.2191 1.9102 -0.7801
v -0.1728 1.6151 -0.6338
v -0.1870 1.2838 -0.6066
v -0.2591 0.9738 -0.7032
v -0.3767 0.7386 -0.9070
v -0.5195 0.6188 -1.1825
v -0.6627 0.6353 -1.4823
v -0.7816 0.7851 -1.7545
v -0.8557 1.0423 -1.9520
v -0.8721 1.3625 -2.0406
v -0.8280 1.6903 -2.0051
v -0.1922 1.8830 -2.0633
v -0.0724 2.0666 -1.8131
v 0.0362 2.1254 -1.5042
v 0.1148 2.0492 -1.1901
v 0.1498 1.8513 -0.9250
v 0.1351 1.5659 -0.7548
v 0.0734 1.2422 -0.7089
v -0.0248 0.9364 -0.7953
v -0.1424 0.7011 -0.9990
v -0.2591 0.5772 -1.2848
v -0.3548 0.5861 -1.6033
v -0.4128 0.7262 -1.8994
v -0.4232 0.9732 -2.1219
v -0.3842 1.2846 -2.2324
v -0.3025 1.6064 -2.2116
v 0.3551 1.7146 -2.1849
v 0.4614 1.9024 -1.9317
v 0.5317 1.9729 -1.6143
v 0.5540 1.9141 -1.2876
v 0.5243 1.7361 -1.0082
v 0.4479 1.4697 -0.8243
v 0.3378 1.1609 -0.7677
v 0.2132 0.8632 -0.8482
v 0.0956 0.6279 -1.0519
v 0.0053 0.4959 -1.3436
v -0.0420 0.4899 -1.6728
v -0.0382 0.6110 -1.9826
v 0.0160 0.8381 -2.2195
v 0.1114 1.1322 -2.3424
v 0.2313 1.4422 -2.3302
v 0.8869 1.4714 -2.2110
v 0.9800 1.6651 -1.9571
v 1.0132 1.7526 -1.6379
v 0.9808 1.7189 -1.3086
v 0.8883 1.5696 -1.0260
v 0.7517 1.3307 -0.8392
v 0.5947 1.0434 -0.7803
v 0.4444 0.7574 -0.8595
v 0.3268 0.5222 -1.0632
v 0.2622 0.3784 -1.3562
v 0.2618 0.3509 -1.6877
v 0.3257 0.4444 -2.0005
v 0.4428 0.6429 -2.2404
v 0.5928 0.9119 -2.3661
v 0.7499 1.2049 -2.3557
v 1.3799 1.1638 -2.1405
v 1.4608 1.3651 -1.8883
v 1.4596 1.4741 -1.5741
v 1.3765 1.4720 -1.2520
v 1.2257 1.3591 -0.9778
v 1.0335 1.1549 -0.7989
v 0.8329 0.8948 -0.7462
v 0.6588 0.6236 -0.8289
v 0.5412 0.3884 -1.0326
v 0.5004 0.2298 -1.3221
v 0.5436 0.1751 -1.6474
v 0.6631 0.2339 -1.9522
v 0.8385 0.3960 -2.1838
v 1.0392 0.6334 -2.3022
v 1.2308 0.9049 -2.2869
v 1.8126 0.8053 -1.9764
v 1.8829 1.0155 -1.7283
v 1.8514 1.1496 -1.4255
v 1.7237 1.1843 -1.1203
v 1.5219 1.1137 -0.8655
v 1.2807 0.9501 -0.7051
v 1.0420 0.7216 -0.6669
v 0.8469 0.4678 -0.7575
v 0.7293 0.2325 -0.9612
v 0.7095 0.0566 -1.2428
v 0.7908 -0.0297 -1.5536
v 0.9593 -0.0114 -1.8399
v 1.1857 0.1083 -2.0521
v 1.4310 0.3088 -2.1536
v 1.6528 0.5553 -2.1268
v 2.1661 0.4116 -1.7259
v 2.2276 0.6316 -1.4840
v 2.1715 0.7931 -1.1987
v 2.0074 0.8684 -0.9192
v 1.7638 0.8443 -0.6940
v 1.4827 0.7251 -0.5620
v 1.2128 0.5314 -0.5459
v 1.0006 0.2966 -0.6486
v 0.8830 0.0614 -0.8523
v 0.8803 -0.1336 -1.1218
v 0.9928 -0.2547 -1.4105
v 1.2012 -0.2808 -1.6685
v 1.4694 -0.2076 -1.8511
v 1.7511 -0.0477 -1.9268
v 1.9975 0.1714 -1.8825
f 1 16 17 2
f 2 17 18 3
f 3 18 19 4
f 4 19 20 5
f 5 20 21 6
f 6 21 22 7
f 7 22 23 8
f 8 23 24 9
f 9 24 25 10
f 10 25 26 11
f 11 26 27 12
f 12 27 28 13
f 13 28 29 14
f 14 29 30 15
f 15 30 16 1
f 16 31 32 17
f 17 32 33 18
f 18 33 34 19
f 19 34 35 20
f 20 35 36 21
f 21 36 37 22
f 22 37 38 23
f 23 38 39 24
f 24 39 40 25
f 25 40 41 26
f 26 41 42 27
f 27 42 43 28
f 28 43 44 29
f 29 44 45 30
f 30 45 31 16
f 31 46 47 32
f 32 47 48 33
f 33 48 49 34
f 34 49 50 35
f 35 50 51 36
f 36 51 52 37
f 37 52 53 38
f 38 53 54 39
f 39 54 55 40
f 40 55 56 41
f 41 56 57 42
f 42 57 58 43
f 43 58 59 44
f 44 59 60 45
f 45 60 46 31
f 46 61 62 47
f 47 62 63 48
f 48 63 64 49
f 49 64 65 50
f 50 65 66 51
f 51 66 67 52
f 52 67 68 53
f 53 68 69 54
f 54 69 70 55
f 55 70 71 56
f 56 71 72 57
f 57 72 73 58
f 58 73 74 59
f 59 74 75 60
f 60 75 61 46
f 61 76 77 62
f 62 77 78 63
f 63 78 79 64
f 64 79 80 65
f 65 80 81 66
f 66 81 82 67
f 67 82 83 68
f 68 83 84 69
f 69 84 85 70
f 70 85 86 71
f 71 86 87 72
f 72 87 88 73
f 73 88 89 74
f 74 89 90 75
f 75 90 76 61
f 76 91 92 77
f 77 92 93 78
f 78 93 94 79
f 79 94 95 80
f 80 95 96 81
f 81 96 97 82
f 82 97 98 83
f 83 98 99 84
f 84 99 100 85
f 85 100 101 86
f 86 101 102 87
f 87 102 103 88
f 88 103 104 89
f 89 104 105 90
f 90 105 91 76
f 91 106 107 92
f 92 107 108 93
f 93 108 109 94
f 94 109 110 95
f 95 110 111 96
f 96 111 112 97
f 97 112 113 98
f 98 113 114 99
f 99 114 115 100
f 100 115 116 101
f 101 116 117 102
f 102 117 118 103
f 103 118 119 104
f 104 119 120 105
f 105 120 106 91
f 106 121 122 107
f 107 122 123 108
f 108 123 124 109
f 109 124 125 110
f 110 125 126 111
f 111 126 127 112
f 112 127 128 113
f 113 128 129 114
f 114 129 130 115
f 115 130 131 116
f 116 131 132 117
f 117 132 133 118
f 118 133 134 119
f 119 134 135 120
f 120 135 121 106
f 121 136 137 122
f 122 137 138 123
f 123 138 139 124
f 124 139 140 125
f 125 140 141 126
f 126 141 142 127
f 127 142 143 128
f 128 143 144 129
f 129 144 145 130
f 130 145 146 131
f 131 146 147 132
f 132 147 148 133
f 133 148 149 134
f 134 149 150 135
f 135 150 136 121
f 136 151 152 137
f 137 152 153 138
f 138 153 154 139
f 139 154 155 140
f 140 155 156 141
f 141 156 157 142
f 142 157 158 143
f 143 158 159 144
f 144 159 160 145
f 145 160 161 146
f 146 161 162 147
f 147 162 163 148
f 148 163 164 149
f 149 164 165 150
f 150 165 151 136
f 151 166 167 152
f 152 167 168 153
f 153 168 169 154
f 154 169 170 155
f 155 170 171 156
f 156 171 172 157
f 157 172 173 158
f 158 173 174 159
f 159 174 175 160
f 160 175 176 161
f 161 176 177 162
f 162 177 178 163
f 163 178 179 164
f 164 179 180 165
f 165 180 166 151
f 166 181 182 167
f 167 182 183 168
f 168 183 184 169
f 169 184 185 170
f 170 185 186 171
f 171 186 187 172
f 172 187 188 173
f 173 188 189 174
f 174 189 190 175
f 175 190 191 176
f 176 191 192 177
f 177 192 193 178
f 178 193 194 179
f 179 194 195 180
f 180 195 181 166
f 181 196 197 182
f 182 197 198 183
f 183 198 199 184
f 184 199 200 185
f 185 200 201 186
f 186 201 202 187
f 187 202 203 188
f 188 203 204 189
f 189 204 205 190
f 190 205 206 191
f 191 206 207 192
f 192 207 208 193
f 193 208 209 194
f 194 209 210 195
f 195 210 196 181
f 196 211 212 197
f 197 212 213 198
f 198 213 214 199
f 199 214 215 200
f 200 215 216 201
f 201 216 217 202
f 202 217 218 203
f 203 218 219 204
f 204 219 220 205
f 205 220 221 206
f 206 221 222 207
f 207 222 223 208
f 208 223 224 209
f 209 224 225 210
f 210 225 211 196
f 211 226 227 212
f 212 227 228 213
f 213 228 229 214
f 214 229 230 215
f 215 230 231 216
f 216 231 232 217
f 217 232 233 218
f 218 233 234 219
f 219 234 235 220
f 220 235 236 221
f 221 236 237 222
f 222 237 238 223
f 223 238 239 224
f 224 239 240 225
f 225 240 226 211
f 226 241 242 227
f 227 242 243 228
f 228 243 244 229
f 229 244 245 230
f 230 245 246 231
f 231 246 247 232
f 232 247 248 233
f 233 248 249 234
f 234 249 250 235
f 235 250 251 236
f 236 251 252 237
f 237 252 253 238
f 238 253 254 239
f 239 254 255 240
f 240 255 241 226
f 241 256 257 242
f 242 257 258 243
f 243 258 259 244
f 244 259 260 245
f 245 260 261 246
f 246 261 262 247
f 247 262 263 248
f 248 263 264 249
f 249 264 265 250
f 250 265 266 251
f 251 266 267 252
f 252 267 268 253
f 253 268 269 254
f 254 269 270 255
f 255 270 256 241
f 256 271 272 257
f 257 272 273 258
f 258 273 274 259
f 259 274 275 260
f 260 275 276 261
f 261 276 277 262
f 262 277 278 263
f 263 278 279 264
f 264 279 280 265
f 265 280 281 266
f 266 281 282 267
f 267 282 283 268
f 268 283 284 269
f 269 284 285 270
f 270 285 271 256
f 271 286 287 272
f 272 287 288 273
f 273 288 289 274
f 274 289 290 275
f 275 290 291 276
f 276 291 292 277
f 277 292 293 278
f 278 293 294 279
f 279 294 295 280
f 280 295 296 281
f 281 296 297 282
f 282 297 298 283
f 283 298 299 284
f 284 299 300 285
f 285 300 286 271
f 286 301 302 287
f 287 302 303 288
f 288 303 304 289
f 289 304 305 290
f 290 305 306 291
f 291 306 307 292
f 292 307 308 293
f 293 308 309 294
f 294 309 310 295
f 295 310 311 296
f 296 311 312 297
f 297 312 313 298
f 298 313 314 299
f 299 314 315 300
f 300 315 301 286
f 301 316 317 302
f 302 317 318 303
f 303 318 319 304
f 304 319 320 305
f 305 320 321 306
f 306 321 322 307
f 307 322 323 308
f 308 323 324 309
f 309 324 325 310
f 310 325 326 311
f 311 326 327 312
f 312 327 328 313
f 313 328 329 314
f 314 329 330 315
f 315 330 316 301
f 316 331 332 317
f 317 332 333 318
f 318 333 334 319
f 319 334 335 320
f 320 335 336 321
f 321 336 337 322
f 322 337 338 323
f 323 338 339 324
f 324 339 340 325
f 325 340 341 326
f 326 341 342 327
f 327 342 343 328
f 328 343 344 329
f 329 344 345 330
f 330 345 331 316
f 331 346 347 332
f 332 347 348 333
f 333 348 349 334
f 334 349 350 335
f 335 350 351 336
f 336 351 352 337
f 337 352 353 338
f 338 353 354 339
f 339 354 355 340
f 340 355 356 341
f 341 356 357 342
f 342 357 358 343
f 343 358 359 344
f 344 359 360 345
f 345 360 346 331
f 346 361 362 347
f 347 362 363 348
f 348 363 364 349
f 349 364 365 350
f 350 365 366 351
f 351 366 367 352
f 352 367 368 353
f 353 368 369 354
f 354 369 370 355
f 355 370 371 356
f 356 371 372 357
f 357 372 373 358
f 358 373 374 359
f 359 374 375 360
f 360 375 361 346
f 361 376 377 362
f 362 377 378 363
f 363 378 379 364
f 364 379 380 365
f 365 380 381 366
f 366 381 382 367
f 367 382 383 368
f 368 383 384 369
f 369 384 385 370
f 370 385 386 371
f 371 386 387 372
f 372 387 388 373
f 373 388 389 374
f 374 389 390 375
f 375 390 376 361
f 376 391 392 377
f 377 392 393 378
f 378 393 394 379
f 379 394 395 380
f 380 395 396 381
f 381 396 397 382
f 382 397 398 383
f 383 398 399 384
f 384 399 400 385
f 385 400 401 386
f 386 401 402 387
f 387 402 403 388
f 388 403 404 389
f 389 404 405 390
f 390 405 391 376
f 391 406 407 392
f 392 407 408 393
f 393 408 409 394
f 394 409 410 395
f 395 410 411 396
f 396 411 412 397
f 397 412 413 398
f 398 413 414 399
f 399 414 415 400
f 400 415 416 401
f 401 416 417 402
f 402 417 418 403
f 403 418 419 404
f 404 419 420 405
f 405 420 406 391
f 406 421 422 407
f 407 422 423 408
f 408 423 424 409
f 409 424 425 410
f 410 425 426 411
f 411 426 427 412
f 412 427 428 413
f 413 428 429 414
f 414 429 430 415
f 415 430 431 416
f 416 431 432 417
f 417 432 433 418
f 418 433 434 419
f 419 434 435 420
f 420 435 421 406
f 421 436 437 422
f 422 437 438 423
f 423 438 439 424
f 424 439 440 425
f 425 440 441 426
f 426 441 442 427
f 427 442 443 428
f 428 443 444 429
f 429 444 445 430
f 430 445 446 431
f 431 446 447 432
f 432 447 448 433
f 433 448 449 434
f 434 449 450 435
f 435 450 436 421
f 436 1 2 437
f 437 2 3 438
f 438 3 4 439
f 439 4 5 440
f 440 5 6 441
f 441 6 7 442
f 442 7 8 443
f 443 8 9 444
f 444 9 10 445
f 445 10 11 446
f 446 11 12 447
f 447 12 13 448
f 448 13 14 449
f 449 14 15 450
f 450 15 1 436
